<svg xmlns="http://www.w3.org/2000/svg" viewBox="0 0 24 24" width="60" height="60">
  <path fill="#ffffff" d="M12,19c0-3.87,3.13-7,7-7c0.36,0,0.71,0.03,1.06,0.09C20.03,12.06,20,12.03,20,12V6c0-1.1-0.9-2-2-2h-1V3c0-0.55-0.45-1-1-1H8C7.45,2,7,2.45,7,3v1H6C4.9,4,4,4.9,4,6v12c0,1.1,0.9,2,2,2h8.35C12.65,19.87,12,19.49,12,19z M8,4h8v1H8V4z M18,19.5c-2.49,0-4.5-2.01-4.5-4.5s2.01-4.5,4.5-4.5s4.5,2.01,4.5,4.5S20.49,19.5,18,19.5z M18,12.5c-1.38,0-2.5,1.12-2.5,2.5s1.12,2.5,2.5,2.5s2.5-1.12,2.5-2.5S19.38,12.5,18,12.5z"/>
</svg>